G75*
%MOIN*%
%OFA0B0*%
%FSLAX24Y24*%
%IPPOS*%
%LPD*%
%AMOC8*
5,1,8,0,0,1.08239X$1,22.5*
%
%ADD10C,0.0030*%
%ADD11C,0.0080*%
%ADD12C,0.0020*%
%ADD13R,0.0300X0.0180*%
%ADD14C,0.0157*%
%ADD15C,0.0050*%
%ADD16C,0.0220*%
D10*
X001363Y000402D02*
X001315Y000451D01*
X001315Y000596D01*
X001605Y000596D01*
X001605Y000451D01*
X001557Y000402D01*
X001363Y000402D01*
X001363Y000697D02*
X001557Y000697D01*
X001605Y000745D01*
X001605Y000890D01*
X001315Y000890D01*
X001315Y000745D01*
X001363Y000697D01*
X001412Y000992D02*
X001605Y000992D01*
X001412Y000992D02*
X001315Y001088D01*
X001412Y001185D01*
X001605Y001185D01*
X001557Y001402D02*
X001363Y001402D01*
X001315Y001451D01*
X001315Y001596D01*
X001605Y001596D01*
X001605Y001451D01*
X001557Y001402D01*
X001605Y001697D02*
X001315Y001697D01*
X001605Y001890D01*
X001315Y001890D01*
X001363Y001992D02*
X001460Y001992D01*
X001460Y002088D01*
X001363Y001992D02*
X001315Y002040D01*
X001315Y002137D01*
X001363Y002185D01*
X001557Y002185D01*
X001605Y002137D01*
X001605Y002040D01*
X001557Y001992D01*
X001315Y002352D02*
X001315Y002546D01*
X001605Y002546D01*
X001557Y002647D02*
X001605Y002695D01*
X001605Y002792D01*
X001557Y002840D01*
X001363Y002840D01*
X001315Y002792D01*
X001315Y002695D01*
X001363Y002647D01*
X001363Y002942D02*
X001315Y002990D01*
X001315Y003087D01*
X001363Y003135D01*
X001460Y003087D02*
X001460Y002990D01*
X001412Y002942D01*
X001363Y002942D01*
X001460Y003087D02*
X001508Y003135D01*
X001557Y003135D01*
X001605Y003087D01*
X001605Y002990D01*
X001557Y002942D01*
X001508Y003352D02*
X001315Y003352D01*
X001460Y003352D02*
X001460Y003546D01*
X001508Y003546D02*
X001605Y003449D01*
X001508Y003352D01*
X001508Y003546D02*
X001315Y003546D01*
X001363Y003647D02*
X001557Y003647D01*
X001605Y003695D01*
X001605Y003840D01*
X001315Y003840D01*
X001315Y003695D01*
X001363Y003647D01*
X001363Y003942D02*
X001315Y003990D01*
X001315Y004087D01*
X001363Y004135D01*
X001460Y004087D02*
X001460Y003990D01*
X001412Y003942D01*
X001363Y003942D01*
X001460Y004087D02*
X001508Y004135D01*
X001557Y004135D01*
X001605Y004087D01*
X001605Y003990D01*
X001557Y003942D01*
X001507Y004363D02*
X001430Y004363D01*
X001392Y004402D01*
X001392Y004517D01*
X001392Y004440D02*
X001315Y004363D01*
X001315Y004517D02*
X001545Y004517D01*
X001545Y004402D01*
X001507Y004363D01*
X001507Y004603D02*
X001353Y004603D01*
X001315Y004641D01*
X001315Y004756D01*
X001545Y004756D01*
X001545Y004641D01*
X001507Y004603D01*
X001507Y004842D02*
X001353Y004842D01*
X001315Y004880D01*
X001315Y004996D01*
X001545Y004996D01*
X001545Y004880D01*
X001507Y004842D01*
X001468Y005082D02*
X001315Y005082D01*
X001430Y005082D02*
X001430Y005235D01*
X001468Y005235D02*
X001545Y005158D01*
X001468Y005082D01*
X001468Y005235D02*
X001315Y005235D01*
X004755Y005210D02*
X004985Y005210D01*
X004985Y005047D02*
X004908Y004971D01*
X004908Y005009D02*
X004908Y004894D01*
X004985Y004894D02*
X004755Y004894D01*
X004755Y005009D01*
X004793Y005047D01*
X004870Y005047D01*
X004908Y005009D01*
X004755Y005133D02*
X004755Y005287D01*
X004985Y004808D02*
X004985Y004654D01*
X004755Y004654D01*
X004832Y004568D02*
X004985Y004568D01*
X004870Y004568D02*
X004870Y004415D01*
X004832Y004415D02*
X004755Y004492D01*
X004832Y004568D01*
X004832Y004415D02*
X004985Y004415D01*
X004947Y004207D02*
X004908Y004207D01*
X004870Y004169D01*
X004870Y004130D01*
X004870Y004169D02*
X004832Y004207D01*
X004793Y004207D01*
X004755Y004169D01*
X004755Y004092D01*
X004793Y004053D01*
X004755Y003967D02*
X004985Y003967D01*
X004755Y003814D01*
X004985Y003814D01*
X004985Y003731D02*
X004985Y003654D01*
X004985Y003693D02*
X004755Y003693D01*
X004755Y003731D02*
X004755Y003654D01*
X004832Y003568D02*
X004985Y003568D01*
X004870Y003568D02*
X004870Y003415D01*
X004832Y003415D02*
X004755Y003492D01*
X004832Y003568D01*
X004832Y003415D02*
X004985Y003415D01*
X004985Y003157D02*
X004985Y003003D01*
X004832Y003157D01*
X004793Y003157D01*
X004755Y003119D01*
X004755Y003042D01*
X004793Y003003D01*
X004755Y002917D02*
X004985Y002917D01*
X004755Y002764D01*
X004985Y002764D01*
X004985Y002681D02*
X004985Y002604D01*
X004985Y002643D02*
X004755Y002643D01*
X004755Y002681D02*
X004755Y002604D01*
X004832Y002518D02*
X004985Y002518D01*
X004870Y002518D02*
X004870Y002365D01*
X004832Y002365D02*
X004755Y002442D01*
X004832Y002518D01*
X004832Y002365D02*
X004985Y002365D01*
X004985Y002207D02*
X004985Y002053D01*
X004985Y001967D02*
X004755Y001967D01*
X004832Y002053D02*
X004755Y002130D01*
X004985Y002130D01*
X004985Y001967D02*
X004755Y001814D01*
X004985Y001814D01*
X004985Y001731D02*
X004985Y001654D01*
X004985Y001693D02*
X004755Y001693D01*
X004755Y001731D02*
X004755Y001654D01*
X004832Y001568D02*
X004985Y001568D01*
X004870Y001568D02*
X004870Y001415D01*
X004832Y001415D02*
X004755Y001492D01*
X004832Y001568D01*
X004832Y001415D02*
X004985Y001415D01*
X004947Y001207D02*
X004793Y001207D01*
X004947Y001053D01*
X004985Y001092D01*
X004985Y001169D01*
X004947Y001207D01*
X004793Y001207D02*
X004755Y001169D01*
X004755Y001092D01*
X004793Y001053D01*
X004947Y001053D01*
X004985Y000967D02*
X004755Y000967D01*
X004755Y000814D02*
X004985Y000967D01*
X004985Y000814D02*
X004755Y000814D01*
X004755Y000731D02*
X004755Y000654D01*
X004755Y000693D02*
X004985Y000693D01*
X004985Y000731D02*
X004985Y000654D01*
X004985Y000568D02*
X004832Y000568D01*
X004755Y000492D01*
X004832Y000415D01*
X004985Y000415D01*
X004870Y000415D02*
X004870Y000568D01*
X004947Y004053D02*
X004985Y004092D01*
X004985Y004169D01*
X004947Y004207D01*
D11*
X001150Y000300D02*
X000150Y000300D01*
X000150Y005300D01*
X001150Y005300D01*
X001150Y000300D01*
X002599Y002239D02*
X003701Y002239D01*
X003701Y003361D02*
X002599Y003361D01*
X003835Y004006D02*
X004465Y004006D01*
X004465Y004794D02*
X003835Y004794D01*
X005150Y005300D02*
X006150Y005300D01*
X006150Y000300D01*
X005150Y000300D01*
X005150Y005300D01*
D12*
X004586Y005103D02*
X004586Y005067D01*
X004549Y005030D01*
X004476Y005030D01*
X004439Y005067D01*
X004439Y005103D01*
X004476Y005140D01*
X004549Y005140D01*
X004586Y005103D01*
X004549Y005030D02*
X004586Y004993D01*
X004586Y004957D01*
X004549Y004920D01*
X004476Y004920D01*
X004439Y004957D01*
X004439Y004993D01*
X004476Y005030D01*
X004365Y005030D02*
X004218Y005030D01*
X004328Y005140D01*
X004328Y004920D01*
X004144Y004920D02*
X003997Y005140D01*
X003923Y005103D02*
X003776Y004957D01*
X003813Y004920D01*
X003886Y004920D01*
X003923Y004957D01*
X003923Y005103D01*
X003886Y005140D01*
X003813Y005140D01*
X003776Y005103D01*
X003776Y004957D01*
X003997Y004920D02*
X004144Y005140D01*
X003612Y003740D02*
X003612Y003520D01*
X003539Y003520D02*
X003686Y003520D01*
X003539Y003667D02*
X003612Y003740D01*
X003465Y003703D02*
X003465Y003630D01*
X003428Y003593D01*
X003318Y003593D01*
X003318Y003520D02*
X003318Y003740D01*
X003428Y003740D01*
X003465Y003703D01*
X003391Y003593D02*
X003465Y003520D01*
X003136Y003520D02*
X002989Y003520D01*
X003136Y003667D01*
X003136Y003703D01*
X003099Y003740D01*
X003026Y003740D01*
X002989Y003703D01*
X002915Y003703D02*
X002878Y003740D01*
X002805Y003740D01*
X002768Y003703D01*
X002768Y003557D01*
X002805Y003520D01*
X002878Y003520D01*
X002915Y003557D01*
X001890Y004110D02*
X001670Y004110D01*
X001670Y004257D01*
X001670Y004331D02*
X001670Y004441D01*
X001707Y004478D01*
X001743Y004478D01*
X001780Y004441D01*
X001780Y004331D01*
X001890Y004331D02*
X001890Y004441D01*
X001853Y004478D01*
X001817Y004478D01*
X001780Y004441D01*
X001707Y004552D02*
X001670Y004589D01*
X001670Y004662D01*
X001707Y004699D01*
X001743Y004699D01*
X001890Y004552D01*
X001890Y004699D01*
X001890Y004331D02*
X001670Y004331D01*
X001780Y004183D02*
X001780Y004110D01*
X003310Y002163D02*
X003310Y001980D01*
X003347Y001943D01*
X003420Y001943D01*
X003457Y001980D01*
X003457Y002163D01*
X003531Y002090D02*
X003605Y002163D01*
X003605Y001943D01*
X003678Y001943D02*
X003531Y001943D01*
X003560Y001850D02*
X003670Y001850D01*
X003707Y001813D01*
X003707Y001740D01*
X003670Y001703D01*
X003560Y001703D01*
X003560Y001630D02*
X003560Y001850D01*
X003633Y001703D02*
X003707Y001630D01*
X003781Y001667D02*
X003818Y001630D01*
X003891Y001630D01*
X003928Y001667D01*
X003928Y001703D01*
X003891Y001740D01*
X003854Y001740D01*
X003891Y001740D02*
X003928Y001777D01*
X003928Y001813D01*
X003891Y001850D01*
X003818Y001850D01*
X003781Y001813D01*
X004160Y001850D02*
X004160Y001630D01*
X004160Y001703D02*
X004270Y001703D01*
X004307Y001740D01*
X004307Y001813D01*
X004270Y001850D01*
X004160Y001850D01*
X004233Y001703D02*
X004307Y001630D01*
X004381Y001740D02*
X004528Y001740D01*
X004491Y001630D02*
X004491Y001850D01*
X004381Y001740D01*
X003278Y001777D02*
X003278Y001813D01*
X003241Y001850D01*
X003168Y001850D01*
X003131Y001813D01*
X003057Y001813D02*
X003057Y001740D01*
X003020Y001703D01*
X002910Y001703D01*
X002910Y001630D02*
X002910Y001850D01*
X003020Y001850D01*
X003057Y001813D01*
X002983Y001703D02*
X003057Y001630D01*
X003131Y001630D02*
X003278Y001777D01*
X003278Y001630D02*
X003131Y001630D01*
X002736Y001630D02*
X002589Y001630D01*
X002662Y001630D02*
X002662Y001850D01*
X002589Y001777D01*
X002515Y001777D02*
X002478Y001740D01*
X002368Y001740D01*
X002368Y001630D02*
X002478Y001630D01*
X002515Y001667D01*
X002515Y001703D01*
X002478Y001740D01*
X002515Y001777D02*
X002515Y001813D01*
X002478Y001850D01*
X002368Y001850D01*
X002368Y001630D01*
X002220Y001740D02*
X002147Y001740D01*
X002147Y001630D02*
X002147Y001850D01*
X002294Y001850D01*
X002086Y001640D02*
X001939Y001640D01*
X002012Y001640D02*
X002012Y001860D01*
X001939Y001787D01*
X001865Y001823D02*
X001828Y001860D01*
X001755Y001860D01*
X001718Y001823D01*
X001718Y001677D01*
X001755Y001640D01*
X001828Y001640D01*
X001865Y001677D01*
D13*
X003100Y000970D03*
X003700Y000970D03*
X004300Y000970D03*
X003500Y004400D03*
D14*
X003563Y002387D03*
D15*
X004250Y002350D02*
X004250Y002450D01*
D16*
X002452Y000970D02*
X002428Y000970D01*
X001912Y000970D02*
X001888Y000970D01*
X002188Y004400D02*
X002212Y004400D01*
X002788Y004400D02*
X002812Y004400D01*
M02*
