G75*
%MOIN*%
%OFA0B0*%
%FSLAX24Y24*%
%IPPOS*%
%LPD*%
%AMOC8*
5,1,8,0,0,1.08239X$1,22.5*
%
%ADD10C,0.0740*%
%ADD11R,0.0740X0.0740*%
%ADD12C,0.0100*%
%ADD13C,0.0350*%
D10*
X000650Y000800D03*
X000650Y001800D03*
X000650Y002800D03*
X000650Y003800D03*
X005650Y003800D03*
X005650Y002800D03*
X005650Y001800D03*
X005650Y000800D03*
X005650Y004800D03*
D11*
X000650Y004800D03*
D12*
X001150Y004200D02*
X001150Y001950D01*
X001000Y001800D01*
X000650Y001800D01*
X001350Y001900D02*
X001550Y001700D01*
X002750Y001700D01*
X003100Y002050D01*
X002350Y002050D02*
X002350Y003100D01*
X002450Y003200D01*
X003050Y003200D01*
X003256Y002975D02*
X003309Y003027D01*
X003355Y003139D01*
X003355Y003261D01*
X003309Y003373D01*
X003223Y003459D01*
X003111Y003505D01*
X002989Y003505D01*
X002877Y003459D01*
X002799Y003380D01*
X002375Y003380D01*
X002275Y003280D01*
X002170Y003175D01*
X002170Y002301D01*
X002091Y002223D01*
X002045Y002111D01*
X002045Y001989D01*
X002090Y001880D01*
X001625Y001880D01*
X001530Y001975D01*
X001530Y002905D01*
X001541Y002877D01*
X001627Y002791D01*
X001739Y002745D01*
X001861Y002745D01*
X001973Y002791D01*
X002059Y002877D01*
X002105Y002989D01*
X002105Y003111D01*
X002059Y003223D01*
X002036Y003245D01*
X002061Y003245D01*
X002173Y003291D01*
X002259Y003377D01*
X002305Y003489D01*
X002305Y003611D01*
X002259Y003723D01*
X002180Y003801D01*
X002180Y003820D01*
X004305Y003820D01*
X004277Y003809D01*
X004191Y003723D01*
X004145Y003611D01*
X004145Y003489D01*
X004191Y003377D01*
X004270Y003299D01*
X004270Y002921D01*
X004191Y002843D01*
X004168Y002786D01*
X004125Y002830D01*
X004025Y002930D01*
X003301Y002930D01*
X003256Y002975D01*
X003272Y002960D02*
X004270Y002960D01*
X004270Y003058D02*
X003321Y003058D01*
X003355Y003157D02*
X004270Y003157D01*
X004270Y003255D02*
X003355Y003255D01*
X003317Y003354D02*
X004215Y003354D01*
X004160Y003452D02*
X003229Y003452D01*
X002871Y003452D02*
X002290Y003452D01*
X002305Y003551D02*
X004145Y003551D01*
X004161Y003649D02*
X002289Y003649D01*
X002234Y003748D02*
X004216Y003748D01*
X004450Y003550D02*
X004450Y002670D01*
X004210Y002861D02*
X004094Y002861D01*
X003950Y002750D02*
X004050Y002650D01*
X004050Y002250D01*
X004300Y002000D01*
X003950Y002750D02*
X003050Y002750D01*
X002349Y003354D02*
X002235Y003354D01*
X002250Y003255D02*
X002085Y003255D01*
X002086Y003157D02*
X002170Y003157D01*
X002170Y003058D02*
X002105Y003058D01*
X002093Y002960D02*
X002170Y002960D01*
X002170Y002861D02*
X002042Y002861D01*
X002170Y002763D02*
X001903Y002763D01*
X001697Y002763D02*
X001530Y002763D01*
X001530Y002664D02*
X002170Y002664D01*
X002170Y002566D02*
X001530Y002566D01*
X001530Y002467D02*
X002170Y002467D01*
X002170Y002369D02*
X001530Y002369D01*
X001530Y002270D02*
X002139Y002270D01*
X002070Y002172D02*
X001530Y002172D01*
X001530Y002073D02*
X002045Y002073D01*
X002051Y001975D02*
X001530Y001975D01*
X001350Y001900D02*
X001350Y003300D01*
X001460Y003410D01*
X001460Y004510D01*
X001750Y004800D01*
X005650Y004800D01*
X005100Y004350D02*
X005650Y003800D01*
X005100Y004350D02*
X001900Y004350D01*
X001650Y004100D01*
X001650Y003200D01*
X001800Y003050D01*
X001558Y002861D02*
X001530Y002861D01*
X002000Y003550D02*
X002000Y003900D01*
X002100Y004000D01*
X004450Y004000D01*
X005650Y002800D01*
D13*
X004450Y002670D03*
X004300Y002000D03*
X003100Y002050D03*
X002350Y002050D03*
X003050Y002750D03*
X003050Y003200D03*
X002510Y003550D03*
X002000Y003550D03*
X001800Y003050D03*
X001150Y004200D03*
X003900Y003550D03*
X004450Y003550D03*
M02*
