G75*
%MOIN*%
%OFA0B0*%
%FSLAX24Y24*%
%IPPOS*%
%LPD*%
%AMOC8*
5,1,8,0,0,1.08239X$1,22.5*
%
%ADD10C,0.0010*%
%ADD11R,0.0250X0.0500*%
%ADD12R,0.0394X0.0433*%
%ADD13R,0.0394X0.0118*%
%ADD14C,0.0740*%
%ADD15R,0.0740X0.0740*%
%ADD16C,0.0100*%
%ADD17C,0.0350*%
D10*
X000150Y000300D02*
X000150Y005300D01*
X006150Y005300D01*
X006150Y000300D01*
X000150Y000300D01*
D11*
X003973Y004400D03*
X004327Y004400D03*
D12*
X003500Y004046D03*
X002800Y004046D03*
X002200Y004065D03*
X002200Y004735D03*
X002800Y004754D03*
X003500Y004754D03*
X003700Y001324D03*
X003100Y001324D03*
X002440Y001305D03*
X001900Y001324D03*
X001900Y000616D03*
X002440Y000635D03*
X003100Y000616D03*
X003700Y000616D03*
X004300Y000616D03*
X004300Y001324D03*
D13*
X003957Y002406D03*
X003957Y002603D03*
X003957Y002800D03*
X003957Y002997D03*
X003957Y003194D03*
X002343Y003194D03*
X002343Y002997D03*
X002343Y002800D03*
X002343Y002603D03*
X002343Y002406D03*
D14*
X000650Y002800D03*
X000650Y001800D03*
X000650Y000800D03*
X000650Y003800D03*
X005650Y003800D03*
X005650Y002800D03*
X005650Y001800D03*
X005650Y000800D03*
X005650Y004800D03*
D15*
X000650Y004800D03*
D16*
X000990Y005140D01*
X004150Y005140D01*
X004327Y004963D01*
X004327Y004400D01*
X004327Y003673D01*
X004450Y003550D01*
X004160Y003452D02*
X003680Y003452D01*
X003680Y003551D02*
X004145Y003551D01*
X004145Y003611D02*
X004145Y003489D01*
X004189Y003383D01*
X003706Y003383D01*
X003630Y003307D01*
X003630Y002934D01*
X003620Y002917D01*
X003610Y002879D01*
X003610Y002800D01*
X003610Y002780D01*
X003560Y002780D01*
X003560Y003245D01*
X003680Y003365D01*
X003680Y003699D01*
X003751Y003699D01*
X003827Y003775D01*
X003827Y004000D01*
X003828Y004000D01*
X003960Y004000D01*
X003960Y004387D01*
X003985Y004387D01*
X003985Y004000D01*
X004118Y004000D01*
X004147Y004008D01*
X004147Y003616D01*
X004145Y003611D01*
X004147Y003649D02*
X003680Y003649D01*
X003799Y003748D02*
X004147Y003748D01*
X004147Y003846D02*
X003827Y003846D01*
X003827Y003945D02*
X004147Y003945D01*
X003985Y004043D02*
X003960Y004043D01*
X003960Y004142D02*
X003985Y004142D01*
X003985Y004240D02*
X003960Y004240D01*
X003960Y004339D02*
X003985Y004339D01*
X003960Y004387D02*
X003755Y004387D01*
X003751Y004392D01*
X003350Y004392D01*
X003350Y004408D01*
X003751Y004408D01*
X003755Y004413D01*
X003960Y004413D01*
X003960Y004800D01*
X003828Y004800D01*
X003827Y004800D01*
X003827Y004960D01*
X004075Y004960D01*
X004147Y004888D01*
X004147Y004792D01*
X004118Y004800D01*
X003985Y004800D01*
X003985Y004413D01*
X003960Y004413D01*
X003960Y004387D01*
X003960Y004437D02*
X003985Y004437D01*
X003985Y004536D02*
X003960Y004536D01*
X003960Y004634D02*
X003985Y004634D01*
X003985Y004733D02*
X003960Y004733D01*
X003827Y004831D02*
X004147Y004831D01*
X004106Y004930D02*
X003827Y004930D01*
X003500Y004754D02*
X002800Y004754D01*
X003170Y004700D02*
X003170Y003320D01*
X003050Y003200D01*
X002650Y002800D01*
X002343Y002800D01*
X002640Y002800D01*
X002900Y002600D02*
X002346Y002600D01*
X002343Y002603D01*
X001297Y002603D01*
X001150Y002750D01*
X001150Y003300D01*
X000650Y003800D01*
X001107Y003597D02*
X001225Y003480D01*
X001330Y003375D01*
X001330Y002825D01*
X001371Y002783D01*
X001647Y002783D01*
X001627Y002791D01*
X001541Y002877D01*
X001495Y002989D01*
X001495Y003111D01*
X001541Y003223D01*
X001627Y003309D01*
X001739Y003355D01*
X001764Y003355D01*
X001741Y003377D01*
X001695Y003489D01*
X001695Y003611D01*
X001741Y003723D01*
X001827Y003809D01*
X001856Y003820D01*
X001853Y003829D01*
X001853Y004017D01*
X002152Y004017D01*
X002152Y004114D01*
X001853Y004114D01*
X001853Y004302D01*
X001863Y004340D01*
X001883Y004374D01*
X001911Y004402D01*
X001927Y004411D01*
X001873Y004464D01*
X001873Y004555D01*
X001759Y004555D01*
X001455Y004250D01*
X001455Y004139D01*
X001409Y004027D01*
X001323Y003941D01*
X001211Y003895D01*
X001150Y003895D01*
X001150Y003701D01*
X001107Y003597D01*
X001129Y003649D02*
X001711Y003649D01*
X001695Y003551D02*
X001154Y003551D01*
X001253Y003452D02*
X001710Y003452D01*
X001736Y003354D02*
X001330Y003354D01*
X001330Y003255D02*
X001574Y003255D01*
X001514Y003157D02*
X001330Y003157D01*
X001330Y003058D02*
X001495Y003058D01*
X001507Y002960D02*
X001330Y002960D01*
X001330Y002861D02*
X001558Y002861D01*
X001800Y003050D02*
X001850Y003000D01*
X002340Y003000D01*
X002343Y002997D01*
X002343Y003194D02*
X002337Y003200D01*
X002100Y003200D01*
X002000Y003300D01*
X002000Y003550D01*
X001766Y003748D02*
X001150Y003748D01*
X001150Y003846D02*
X001853Y003846D01*
X001853Y003945D02*
X001326Y003945D01*
X001415Y004043D02*
X002152Y004043D01*
X002248Y004043D02*
X002752Y004043D01*
X002752Y003997D02*
X002547Y003997D01*
X002547Y004017D01*
X002248Y004017D01*
X002248Y004114D01*
X002453Y004114D01*
X002453Y004094D01*
X002752Y004094D01*
X002752Y003997D01*
X002848Y003997D01*
X002848Y003679D01*
X002990Y003679D01*
X002990Y003505D01*
X002989Y003505D01*
X002877Y003459D01*
X002791Y003373D01*
X002745Y003261D01*
X002745Y003150D01*
X002670Y003074D01*
X002670Y003110D01*
X002670Y003307D01*
X002594Y003383D01*
X002261Y003383D01*
X002305Y003489D01*
X002305Y003611D01*
X002268Y003699D01*
X002417Y003699D01*
X002455Y003709D01*
X002489Y003729D01*
X002490Y003730D01*
X002511Y003709D01*
X002545Y003689D01*
X002583Y003679D01*
X002752Y003679D01*
X002752Y003997D01*
X002752Y003945D02*
X002848Y003945D01*
X002848Y003846D02*
X002752Y003846D01*
X002752Y003748D02*
X002848Y003748D01*
X002990Y003649D02*
X002289Y003649D01*
X002305Y003551D02*
X002990Y003551D01*
X002871Y003452D02*
X002290Y003452D01*
X002623Y003354D02*
X002783Y003354D01*
X002745Y003255D02*
X002670Y003255D01*
X002670Y003157D02*
X002745Y003157D01*
X003050Y002750D02*
X002900Y002600D01*
X003140Y002400D02*
X003380Y002640D01*
X003380Y003320D01*
X003500Y003440D01*
X003500Y004046D01*
X003668Y003354D02*
X003677Y003354D01*
X003630Y003255D02*
X003570Y003255D01*
X003560Y003157D02*
X003630Y003157D01*
X003630Y003058D02*
X003560Y003058D01*
X003560Y002960D02*
X003630Y002960D01*
X003610Y002861D02*
X003560Y002861D01*
X003610Y002800D02*
X003957Y002800D01*
X003610Y002800D01*
X003600Y002600D02*
X003954Y002600D01*
X003957Y002603D01*
X003957Y002406D02*
X004236Y002406D01*
X004450Y002670D01*
X004703Y002997D02*
X004800Y002900D01*
X004800Y000950D01*
X004950Y000800D01*
X005650Y000800D01*
X005650Y001800D02*
X005200Y001800D01*
X005000Y002000D01*
X005000Y003050D01*
X004856Y003194D01*
X003957Y003194D01*
X003957Y002997D02*
X004703Y002997D01*
X003957Y002800D02*
X003957Y002800D01*
X003600Y002600D02*
X003100Y002100D01*
X003100Y002050D01*
X003100Y001324D01*
X002770Y001200D02*
X002770Y000800D01*
X002870Y000700D01*
X003096Y000700D01*
X003100Y000616D01*
X003700Y000616D01*
X004300Y000616D01*
X004300Y001324D02*
X004300Y002000D01*
X003957Y002406D02*
X003700Y002149D01*
X003700Y001324D01*
X002770Y001200D02*
X002685Y001285D01*
X002440Y001305D01*
X002450Y001395D01*
X002450Y001950D01*
X002350Y002050D01*
X002349Y002400D02*
X002343Y002406D01*
X001044Y002406D01*
X000650Y002800D01*
X000650Y001800D02*
X001750Y001800D01*
X001900Y001650D01*
X001900Y001324D01*
X001696Y000800D02*
X001900Y000616D01*
X002430Y000616D01*
X002440Y000635D01*
X001696Y000800D02*
X000650Y000800D01*
X002349Y002400D02*
X003140Y002400D01*
X001853Y004142D02*
X001455Y004142D01*
X001455Y004240D02*
X001853Y004240D01*
X001863Y004339D02*
X001543Y004339D01*
X001642Y004437D02*
X001900Y004437D01*
X001873Y004536D02*
X001740Y004536D01*
X001685Y004735D02*
X001150Y004200D01*
X001685Y004735D02*
X002200Y004735D01*
X003170Y004700D02*
X003220Y004750D01*
X003496Y004750D01*
X003500Y004754D01*
D17*
X003900Y003550D03*
X004450Y003550D03*
X004450Y002670D03*
X004300Y002000D03*
X003100Y002050D03*
X002350Y002050D03*
X003050Y002750D03*
X003050Y003200D03*
X002510Y003550D03*
X002000Y003550D03*
X001800Y003050D03*
X001150Y004200D03*
M02*
