G75*
%MOIN*%
%OFA0B0*%
%FSLAX24Y24*%
%IPPOS*%
%LPD*%
%AMOC8*
5,1,8,0,0,1.08239X$1,22.5*
%
%ADD10C,0.0030*%
%ADD11C,0.0020*%
%ADD12C,0.0080*%
%ADD13C,0.0010*%
D10*
X002089Y003835D02*
X001986Y003938D01*
X001986Y004042D01*
X002089Y004145D01*
X002195Y004145D02*
X002402Y004145D01*
X002402Y003990D01*
X002299Y004042D01*
X002247Y004042D01*
X002195Y003990D01*
X002195Y003887D01*
X002247Y003835D01*
X002351Y003835D01*
X002402Y003887D01*
X002509Y003835D02*
X002715Y003835D01*
X002822Y003835D02*
X003028Y003835D01*
X003135Y003835D02*
X003342Y003835D01*
X003448Y003887D02*
X003499Y003835D01*
X003603Y003835D01*
X003655Y003887D01*
X003761Y003887D02*
X003761Y004094D01*
X003813Y004145D01*
X003968Y004145D01*
X003968Y003835D01*
X003813Y003835D01*
X003761Y003887D01*
X003655Y004042D02*
X003603Y003990D01*
X003499Y003990D01*
X003448Y003938D01*
X003448Y003887D01*
X003342Y004042D02*
X003238Y004145D01*
X003238Y003835D01*
X003028Y004042D02*
X002925Y004145D01*
X002925Y003835D01*
X002715Y004042D02*
X002612Y004145D01*
X002612Y003835D01*
X002663Y004345D02*
X002663Y004552D01*
X002508Y004552D01*
X002456Y004500D01*
X002456Y004345D01*
X002350Y004397D02*
X002350Y004500D01*
X002298Y004552D01*
X002195Y004552D01*
X002143Y004500D01*
X002143Y004448D01*
X002350Y004448D01*
X002350Y004397D02*
X002298Y004345D01*
X002195Y004345D01*
X002037Y004345D02*
X001934Y004345D01*
X001985Y004345D02*
X001985Y004655D01*
X002037Y004655D01*
X001985Y004855D02*
X001882Y004855D01*
X001830Y004907D01*
X001985Y004855D02*
X002037Y004907D01*
X002037Y005114D01*
X001985Y005165D01*
X001882Y005165D01*
X001830Y005114D01*
X002143Y005114D02*
X002143Y004907D01*
X002195Y004855D01*
X002350Y004855D01*
X002350Y005165D01*
X002195Y005165D01*
X002143Y005114D01*
X002456Y005062D02*
X002456Y004855D01*
X002456Y005010D02*
X002663Y005010D01*
X002663Y005062D02*
X002560Y005165D01*
X002456Y005062D01*
X002663Y005062D02*
X002663Y004855D01*
X002821Y004552D02*
X002769Y004500D01*
X002769Y004345D01*
X002976Y004345D02*
X002976Y004552D01*
X002821Y004552D01*
X003083Y004500D02*
X003083Y004345D01*
X003238Y004345D01*
X003289Y004397D01*
X003238Y004448D01*
X003083Y004448D01*
X003083Y004500D02*
X003134Y004552D01*
X003238Y004552D01*
X003396Y004500D02*
X003396Y004345D01*
X003396Y004500D02*
X003447Y004552D01*
X003551Y004552D01*
X003602Y004500D01*
X003709Y004604D02*
X003760Y004655D01*
X003864Y004655D01*
X003915Y004604D01*
X003915Y004397D01*
X003864Y004345D01*
X003760Y004345D01*
X003709Y004397D01*
X003602Y004345D02*
X003602Y004655D01*
X003552Y004855D02*
X003707Y004855D01*
X003707Y005165D01*
X003552Y005165D01*
X003500Y005114D01*
X003500Y005062D01*
X003552Y005010D01*
X003707Y005010D01*
X003813Y005010D02*
X004020Y005010D01*
X004126Y004958D02*
X004126Y004907D01*
X004178Y004855D01*
X004281Y004855D01*
X004333Y004907D01*
X004333Y005010D01*
X004178Y005010D01*
X004126Y004958D01*
X004229Y005114D02*
X004333Y005010D01*
X004229Y005114D02*
X004126Y005165D01*
X004439Y004855D02*
X004646Y004855D01*
X004543Y004855D02*
X004543Y005165D01*
X004646Y005062D01*
X004386Y004655D02*
X004542Y004500D01*
X004335Y004500D01*
X004229Y004500D02*
X004022Y004500D01*
X004386Y004345D02*
X004386Y004655D01*
X004386Y004145D02*
X004489Y004042D01*
X004489Y003938D01*
X004386Y003835D01*
X004281Y003835D02*
X004281Y004042D01*
X004177Y004145D01*
X004074Y004042D01*
X004074Y003835D01*
X004074Y003990D02*
X004281Y003990D01*
X003655Y004042D02*
X003655Y004094D01*
X003603Y004145D01*
X003499Y004145D01*
X003448Y004094D01*
X003394Y004855D02*
X003290Y004855D01*
X003342Y004855D02*
X003342Y005062D01*
X003394Y005062D01*
X003342Y005165D02*
X003342Y005217D01*
X003185Y005062D02*
X003082Y005062D01*
X003133Y005114D02*
X003133Y004907D01*
X003082Y004855D01*
X003500Y004907D02*
X003552Y004855D01*
X003500Y004907D02*
X003500Y004958D01*
X003552Y005010D01*
D11*
X001540Y004900D02*
X001360Y004900D01*
X001360Y004840D02*
X001360Y004960D01*
X001360Y005024D02*
X001360Y005054D01*
X001390Y005054D01*
X001390Y005024D01*
X001360Y005024D01*
X001390Y005116D02*
X001360Y005146D01*
X001360Y005207D01*
X001390Y005237D01*
X001510Y005237D01*
X001390Y005116D01*
X001510Y005116D01*
X001540Y005146D01*
X001540Y005207D01*
X001510Y005237D01*
X001540Y004900D02*
X001480Y004840D01*
X001480Y004776D02*
X001360Y004716D01*
X001480Y004656D01*
X001450Y004408D02*
X001450Y004288D01*
X001390Y004224D02*
X001360Y004194D01*
X001360Y004134D01*
X001390Y004104D01*
X001510Y004104D01*
X001540Y004134D01*
X001540Y004194D01*
X001510Y004224D01*
X001540Y004288D02*
X001360Y004288D01*
X001360Y004408D02*
X001540Y004408D01*
X001540Y004040D02*
X001540Y003979D01*
X001540Y004009D02*
X001390Y004009D01*
X001360Y003979D01*
X001360Y003949D01*
X001390Y003919D01*
X002358Y002470D02*
X002358Y002440D01*
X002358Y002380D02*
X002358Y002260D01*
X002388Y002260D02*
X002328Y002260D01*
X002265Y002290D02*
X002235Y002260D01*
X002145Y002260D01*
X002081Y002260D02*
X002081Y002290D01*
X002051Y002290D01*
X002051Y002260D01*
X002081Y002260D01*
X001989Y002290D02*
X001989Y002350D01*
X001959Y002380D01*
X001869Y002380D01*
X001805Y002350D02*
X001805Y002290D01*
X001775Y002260D01*
X001715Y002260D01*
X001685Y002290D01*
X001685Y002350D01*
X001715Y002380D01*
X001775Y002380D01*
X001805Y002350D01*
X001869Y002260D02*
X001959Y002260D01*
X001989Y002290D01*
X002145Y002380D02*
X002235Y002380D01*
X002265Y002350D01*
X002265Y002290D01*
X002358Y002380D02*
X002388Y002380D01*
X002451Y002380D02*
X002511Y002380D01*
X002481Y002410D02*
X002481Y002290D01*
X002451Y002260D01*
X002575Y002290D02*
X002575Y002350D01*
X002605Y002380D01*
X002665Y002380D01*
X002695Y002350D01*
X002695Y002290D01*
X002665Y002260D01*
X002605Y002260D01*
X002575Y002290D01*
X002759Y002290D02*
X002759Y002350D01*
X002789Y002380D01*
X002879Y002380D01*
X002879Y002440D02*
X002879Y002260D01*
X002789Y002260D01*
X002759Y002290D01*
X002943Y002290D02*
X002943Y002350D01*
X002973Y002380D01*
X003033Y002380D01*
X003063Y002350D01*
X003063Y002290D01*
X003033Y002260D01*
X002973Y002260D01*
X002943Y002290D01*
X003127Y002380D02*
X003157Y002380D01*
X003217Y002320D01*
X003217Y002260D02*
X003217Y002380D01*
X003281Y002380D02*
X003371Y002380D01*
X003401Y002350D01*
X003401Y002290D01*
X003371Y002260D01*
X003281Y002260D01*
X003465Y002260D02*
X003465Y002350D01*
X003495Y002380D01*
X003555Y002380D01*
X003555Y002320D02*
X003465Y002320D01*
X003465Y002260D02*
X003555Y002260D01*
X003585Y002290D01*
X003555Y002320D01*
X003649Y002440D02*
X003769Y002260D01*
X003953Y002260D02*
X003833Y002440D01*
X004015Y002380D02*
X004015Y002350D01*
X004045Y002350D01*
X004045Y002380D01*
X004015Y002380D01*
X004015Y002290D02*
X004015Y002260D01*
X004045Y002260D01*
X004045Y002290D01*
X004015Y002290D01*
X004109Y002290D02*
X004140Y002260D01*
X004230Y002260D01*
X004200Y002320D02*
X004230Y002350D01*
X004200Y002380D01*
X004109Y002380D01*
X004140Y002320D02*
X004200Y002320D01*
X004140Y002320D02*
X004109Y002290D01*
X004294Y002290D02*
X004324Y002260D01*
X004414Y002260D01*
X004414Y002200D02*
X004414Y002380D01*
X004324Y002380D01*
X004294Y002350D01*
X004294Y002290D01*
X004476Y002260D02*
X004507Y002290D01*
X004507Y002410D01*
X004537Y002380D02*
X004476Y002380D01*
X004599Y002380D02*
X004659Y002380D01*
X004629Y002410D02*
X004629Y002290D01*
X004599Y002260D01*
X004723Y002260D02*
X004723Y002350D01*
X004753Y002380D01*
X004813Y002380D01*
X004843Y002350D01*
X004843Y002440D02*
X004843Y002260D01*
X004867Y001470D02*
X004940Y001470D01*
X004903Y001470D02*
X004903Y001250D01*
X004867Y001250D02*
X004940Y001250D01*
X004903Y001110D02*
X004830Y001110D01*
X004793Y001073D01*
X004940Y000927D01*
X004903Y000890D01*
X004830Y000890D01*
X004793Y000927D01*
X004793Y001073D01*
X004903Y001110D02*
X004940Y001073D01*
X004940Y000927D01*
X004903Y000750D02*
X004830Y000750D01*
X004793Y000713D01*
X004940Y000567D01*
X004903Y000530D01*
X004830Y000530D01*
X004793Y000567D01*
X004793Y000713D01*
X004903Y000750D02*
X004940Y000713D01*
X004940Y000567D01*
X004719Y000530D02*
X004572Y000677D01*
X004498Y000640D02*
X004351Y000640D01*
X004277Y000603D02*
X004240Y000640D01*
X004167Y000640D01*
X004130Y000603D01*
X004130Y000567D01*
X004167Y000530D01*
X004240Y000530D01*
X004277Y000567D01*
X004277Y000603D01*
X004240Y000640D02*
X004277Y000677D01*
X004277Y000713D01*
X004240Y000750D01*
X004167Y000750D01*
X004130Y000713D01*
X004130Y000677D01*
X004167Y000640D01*
X004388Y000530D02*
X004388Y000750D01*
X004498Y000640D01*
X004572Y000530D02*
X004719Y000677D01*
X004719Y000890D02*
X004572Y001037D01*
X004498Y001000D02*
X004351Y001000D01*
X004277Y001037D02*
X004240Y001000D01*
X004130Y001000D01*
X004130Y000927D02*
X004130Y001073D01*
X004167Y001110D01*
X004240Y001110D01*
X004277Y001073D01*
X004277Y001037D01*
X004277Y000927D02*
X004240Y000890D01*
X004167Y000890D01*
X004130Y000927D01*
X004388Y000890D02*
X004388Y001110D01*
X004498Y001000D01*
X004572Y000890D02*
X004719Y001037D01*
X004646Y001250D02*
X004793Y001250D01*
X004646Y001397D01*
X004646Y001433D01*
X004683Y001470D01*
X004756Y001470D01*
X004793Y001433D01*
X004572Y001433D02*
X004572Y001287D01*
X004535Y001250D01*
X004462Y001250D01*
X004425Y001287D01*
X004425Y001433D02*
X004462Y001470D01*
X004535Y001470D01*
X004572Y001433D01*
X004130Y001397D02*
X004130Y001250D01*
X004130Y001360D02*
X003983Y001360D01*
X003983Y001397D02*
X003983Y001250D01*
X003909Y001287D02*
X003909Y001360D01*
X003872Y001397D01*
X003762Y001397D01*
X003762Y001470D02*
X003762Y001250D01*
X003872Y001250D01*
X003909Y001287D01*
X003983Y001397D02*
X004056Y001470D01*
X004130Y001397D01*
X003835Y001110D02*
X003725Y001110D01*
X003688Y001073D01*
X003688Y000927D01*
X003725Y000890D01*
X003835Y000890D01*
X003835Y001110D01*
X003688Y001287D02*
X003688Y001360D01*
X003651Y001397D01*
X003541Y001397D01*
X003541Y001470D02*
X003541Y001250D01*
X003651Y001250D01*
X003688Y001287D01*
X003467Y001323D02*
X003393Y001397D01*
X003357Y001397D01*
X003283Y001360D02*
X003246Y001397D01*
X003172Y001397D01*
X003136Y001360D01*
X003136Y001323D01*
X003283Y001323D01*
X003283Y001287D02*
X003283Y001360D01*
X003283Y001287D02*
X003246Y001250D01*
X003172Y001250D01*
X003062Y001250D02*
X002952Y001250D01*
X002915Y001287D01*
X002952Y001323D01*
X003025Y001323D01*
X003062Y001360D01*
X003025Y001397D01*
X002915Y001397D01*
X002841Y001360D02*
X002804Y001397D01*
X002694Y001397D01*
X002620Y001397D02*
X002620Y001360D01*
X002583Y001360D01*
X002583Y001397D01*
X002620Y001397D01*
X002620Y001287D02*
X002583Y001287D01*
X002583Y001250D01*
X002620Y001250D01*
X002620Y001287D01*
X002694Y001287D02*
X002731Y001323D01*
X002804Y001323D01*
X002841Y001360D01*
X002841Y001250D02*
X002731Y001250D01*
X002694Y001287D01*
X002767Y001110D02*
X002767Y000890D01*
X002804Y000890D02*
X002730Y000890D01*
X002620Y000927D02*
X002583Y000890D01*
X002620Y000927D02*
X002620Y001073D01*
X002656Y001037D02*
X002583Y001037D01*
X002767Y001110D02*
X002804Y001110D01*
X002878Y001037D02*
X002878Y000890D01*
X002988Y000890D01*
X003025Y000927D01*
X003025Y001037D01*
X003099Y001000D02*
X003099Y000890D01*
X003209Y000890D01*
X003246Y000927D01*
X003209Y000963D01*
X003099Y000963D01*
X003099Y001000D02*
X003136Y001037D01*
X003209Y001037D01*
X003320Y001000D02*
X003393Y001000D01*
X003356Y001073D02*
X003320Y001110D01*
X003356Y001073D02*
X003356Y000890D01*
X003467Y000963D02*
X003467Y001000D01*
X003504Y001037D01*
X003577Y001037D01*
X003614Y001000D01*
X003614Y000927D01*
X003577Y000890D01*
X003504Y000890D01*
X003467Y000963D02*
X003614Y000963D01*
X003393Y000713D02*
X003356Y000750D01*
X003283Y000750D01*
X003246Y000713D01*
X003283Y000640D02*
X003246Y000603D01*
X003246Y000567D01*
X003283Y000530D01*
X003356Y000530D01*
X003393Y000567D01*
X003356Y000640D02*
X003283Y000640D01*
X003356Y000640D02*
X003393Y000677D01*
X003393Y000713D01*
X003172Y000640D02*
X003172Y000567D01*
X003135Y000530D01*
X003062Y000530D01*
X003025Y000567D01*
X003025Y000640D01*
X003062Y000677D01*
X003135Y000677D01*
X003172Y000640D01*
X002951Y000530D02*
X002878Y000530D01*
X002914Y000530D02*
X002914Y000750D01*
X002951Y000750D01*
X002804Y000640D02*
X002767Y000677D01*
X002657Y000677D01*
X002657Y000750D02*
X002657Y000530D01*
X002767Y000530D01*
X002804Y000567D01*
X002804Y000640D01*
X002583Y000640D02*
X002583Y000567D01*
X002546Y000530D01*
X002473Y000530D01*
X002436Y000603D02*
X002583Y000603D01*
X002583Y000640D02*
X002546Y000677D01*
X002473Y000677D01*
X002436Y000640D01*
X002436Y000603D01*
X002362Y000603D02*
X002288Y000677D01*
X002252Y000677D01*
X002362Y000677D02*
X002362Y000530D01*
X003467Y001250D02*
X003467Y001397D01*
X003688Y000677D02*
X003688Y000567D01*
X003725Y000530D01*
X003762Y000567D01*
X003798Y000530D01*
X003835Y000567D01*
X003835Y000677D01*
X001621Y002260D02*
X001621Y002380D01*
X001591Y002380D01*
X001561Y002350D01*
X001531Y002380D01*
X001501Y002350D01*
X001501Y002260D01*
X001561Y002260D02*
X001561Y002350D01*
D12*
X001150Y000300D02*
X000150Y000300D01*
X000150Y005300D01*
X001150Y005300D01*
X001150Y000300D01*
X005150Y000300D02*
X006150Y000300D01*
X006150Y005300D01*
X005150Y005300D01*
X005150Y000300D01*
D13*
X002150Y000500D02*
X002150Y001428D01*
X001374Y001428D01*
X001374Y000498D01*
X001648Y000498D01*
X001648Y000772D01*
X001598Y000796D01*
X001598Y001080D01*
X001646Y001120D01*
X001676Y001120D01*
X001676Y001238D01*
X001698Y001260D01*
X001824Y001260D01*
X001852Y001234D01*
X001852Y001142D01*
X001874Y001142D01*
X001874Y001120D01*
X001852Y001120D01*
X001678Y001120D01*
X001678Y001136D01*
X001878Y001136D01*
X001878Y001118D01*
X001926Y001078D01*
X001926Y000796D01*
X001876Y000770D01*
X001876Y000500D01*
X002150Y000500D01*
X002150Y000504D02*
X001876Y000504D01*
X001876Y000513D02*
X002150Y000513D01*
X002150Y000521D02*
X001876Y000521D01*
X001876Y000530D02*
X002150Y000530D01*
X002150Y000538D02*
X001876Y000538D01*
X001876Y000547D02*
X002150Y000547D01*
X002150Y000555D02*
X001876Y000555D01*
X001876Y000564D02*
X002150Y000564D01*
X002150Y000572D02*
X001876Y000572D01*
X001876Y000581D02*
X002150Y000581D01*
X002150Y000589D02*
X001876Y000589D01*
X001876Y000598D02*
X002150Y000598D01*
X002150Y000606D02*
X001876Y000606D01*
X001876Y000615D02*
X002150Y000615D01*
X002150Y000623D02*
X001876Y000623D01*
X001876Y000632D02*
X002150Y000632D01*
X002150Y000640D02*
X001876Y000640D01*
X001876Y000649D02*
X002150Y000649D01*
X002150Y000657D02*
X001876Y000657D01*
X001876Y000666D02*
X002150Y000666D01*
X002150Y000674D02*
X001876Y000674D01*
X001876Y000683D02*
X002150Y000683D01*
X002150Y000691D02*
X001876Y000691D01*
X001876Y000700D02*
X002150Y000700D01*
X002150Y000708D02*
X001876Y000708D01*
X001876Y000717D02*
X002150Y000717D01*
X002150Y000725D02*
X001876Y000725D01*
X001876Y000734D02*
X002150Y000734D01*
X002150Y000742D02*
X001876Y000742D01*
X001876Y000751D02*
X002150Y000751D01*
X002150Y000759D02*
X001876Y000759D01*
X001876Y000768D02*
X002150Y000768D01*
X002150Y000776D02*
X001888Y000776D01*
X001904Y000785D02*
X002150Y000785D01*
X002150Y000793D02*
X001920Y000793D01*
X001926Y000802D02*
X002150Y000802D01*
X002150Y000810D02*
X001926Y000810D01*
X001926Y000819D02*
X002150Y000819D01*
X002150Y000827D02*
X001926Y000827D01*
X001926Y000836D02*
X002150Y000836D01*
X002150Y000844D02*
X001926Y000844D01*
X001926Y000853D02*
X002150Y000853D01*
X002150Y000861D02*
X001926Y000861D01*
X001926Y000870D02*
X002150Y000870D01*
X002150Y000878D02*
X001926Y000878D01*
X001926Y000887D02*
X002150Y000887D01*
X002150Y000895D02*
X001926Y000895D01*
X001926Y000904D02*
X002150Y000904D01*
X002150Y000912D02*
X001926Y000912D01*
X001926Y000921D02*
X002150Y000921D01*
X002150Y000929D02*
X001926Y000929D01*
X001926Y000938D02*
X002150Y000938D01*
X002150Y000946D02*
X001926Y000946D01*
X001926Y000955D02*
X002150Y000955D01*
X002150Y000963D02*
X001926Y000963D01*
X001926Y000972D02*
X002150Y000972D01*
X002150Y000980D02*
X001926Y000980D01*
X001926Y000989D02*
X002150Y000989D01*
X002150Y000997D02*
X001926Y000997D01*
X001926Y001006D02*
X002150Y001006D01*
X002150Y001014D02*
X001926Y001014D01*
X001926Y001023D02*
X002150Y001023D01*
X002150Y001031D02*
X001926Y001031D01*
X001926Y001040D02*
X002150Y001040D01*
X002150Y001048D02*
X001926Y001048D01*
X001926Y001057D02*
X002150Y001057D01*
X002150Y001065D02*
X001926Y001065D01*
X001926Y001074D02*
X002150Y001074D01*
X002150Y001082D02*
X001921Y001082D01*
X001911Y001091D02*
X002150Y001091D01*
X002150Y001099D02*
X001901Y001099D01*
X001891Y001108D02*
X002150Y001108D01*
X002150Y001116D02*
X001880Y001116D01*
X001878Y001125D02*
X002150Y001125D01*
X002150Y001133D02*
X001878Y001133D01*
X001874Y001133D02*
X001678Y001133D01*
X001676Y001133D02*
X001374Y001133D01*
X001374Y001125D02*
X001676Y001125D01*
X001678Y001125D02*
X001874Y001125D01*
X001874Y001142D02*
X002150Y001142D01*
X002150Y001150D02*
X001852Y001150D01*
X001852Y001159D02*
X002150Y001159D01*
X002150Y001167D02*
X001852Y001167D01*
X001852Y001176D02*
X002150Y001176D01*
X002150Y001184D02*
X001852Y001184D01*
X001852Y001193D02*
X002150Y001193D01*
X002150Y001201D02*
X001852Y001201D01*
X001852Y001210D02*
X002150Y001210D01*
X002150Y001218D02*
X001852Y001218D01*
X001852Y001227D02*
X002150Y001227D01*
X002150Y001235D02*
X001851Y001235D01*
X001842Y001244D02*
X002150Y001244D01*
X002150Y001252D02*
X001833Y001252D01*
X001690Y001252D02*
X001374Y001252D01*
X001374Y001244D02*
X001682Y001244D01*
X001676Y001235D02*
X001374Y001235D01*
X001374Y001227D02*
X001676Y001227D01*
X001676Y001218D02*
X001374Y001218D01*
X001374Y001210D02*
X001676Y001210D01*
X001676Y001201D02*
X001374Y001201D01*
X001374Y001193D02*
X001676Y001193D01*
X001676Y001184D02*
X001374Y001184D01*
X001374Y001176D02*
X001676Y001176D01*
X001676Y001167D02*
X001374Y001167D01*
X001374Y001159D02*
X001676Y001159D01*
X001676Y001150D02*
X001374Y001150D01*
X001374Y001142D02*
X001676Y001142D01*
X001641Y001116D02*
X001374Y001116D01*
X001374Y001108D02*
X001631Y001108D01*
X001621Y001099D02*
X001374Y001099D01*
X001374Y001091D02*
X001611Y001091D01*
X001600Y001082D02*
X001374Y001082D01*
X001374Y001074D02*
X001598Y001074D01*
X001598Y001065D02*
X001374Y001065D01*
X001374Y001057D02*
X001598Y001057D01*
X001598Y001048D02*
X001374Y001048D01*
X001374Y001040D02*
X001598Y001040D01*
X001598Y001031D02*
X001374Y001031D01*
X001374Y001023D02*
X001598Y001023D01*
X001598Y001014D02*
X001374Y001014D01*
X001374Y001006D02*
X001598Y001006D01*
X001598Y000997D02*
X001374Y000997D01*
X001374Y000989D02*
X001598Y000989D01*
X001598Y000980D02*
X001374Y000980D01*
X001374Y000972D02*
X001598Y000972D01*
X001598Y000963D02*
X001374Y000963D01*
X001374Y000955D02*
X001598Y000955D01*
X001598Y000946D02*
X001374Y000946D01*
X001374Y000938D02*
X001598Y000938D01*
X001598Y000929D02*
X001374Y000929D01*
X001374Y000921D02*
X001598Y000921D01*
X001598Y000912D02*
X001374Y000912D01*
X001374Y000904D02*
X001598Y000904D01*
X001598Y000895D02*
X001374Y000895D01*
X001374Y000887D02*
X001598Y000887D01*
X001598Y000878D02*
X001374Y000878D01*
X001374Y000870D02*
X001598Y000870D01*
X001598Y000861D02*
X001374Y000861D01*
X001374Y000853D02*
X001598Y000853D01*
X001598Y000844D02*
X001374Y000844D01*
X001374Y000836D02*
X001598Y000836D01*
X001598Y000827D02*
X001374Y000827D01*
X001374Y000819D02*
X001598Y000819D01*
X001598Y000810D02*
X001374Y000810D01*
X001374Y000802D02*
X001598Y000802D01*
X001604Y000793D02*
X001374Y000793D01*
X001374Y000785D02*
X001622Y000785D01*
X001640Y000776D02*
X001374Y000776D01*
X001374Y000768D02*
X001648Y000768D01*
X001648Y000759D02*
X001374Y000759D01*
X001374Y000751D02*
X001648Y000751D01*
X001648Y000742D02*
X001374Y000742D01*
X001374Y000734D02*
X001648Y000734D01*
X001648Y000725D02*
X001374Y000725D01*
X001374Y000717D02*
X001648Y000717D01*
X001648Y000708D02*
X001374Y000708D01*
X001374Y000700D02*
X001648Y000700D01*
X001648Y000691D02*
X001374Y000691D01*
X001374Y000683D02*
X001648Y000683D01*
X001648Y000674D02*
X001374Y000674D01*
X001374Y000666D02*
X001648Y000666D01*
X001648Y000657D02*
X001374Y000657D01*
X001374Y000649D02*
X001648Y000649D01*
X001648Y000640D02*
X001374Y000640D01*
X001374Y000632D02*
X001648Y000632D01*
X001648Y000623D02*
X001374Y000623D01*
X001374Y000615D02*
X001648Y000615D01*
X001648Y000606D02*
X001374Y000606D01*
X001374Y000598D02*
X001648Y000598D01*
X001648Y000589D02*
X001374Y000589D01*
X001374Y000581D02*
X001648Y000581D01*
X001648Y000572D02*
X001374Y000572D01*
X001374Y000564D02*
X001648Y000564D01*
X001648Y000555D02*
X001374Y000555D01*
X001374Y000547D02*
X001648Y000547D01*
X001648Y000538D02*
X001374Y000538D01*
X001374Y000530D02*
X001648Y000530D01*
X001648Y000521D02*
X001374Y000521D01*
X001374Y000513D02*
X001648Y000513D01*
X001648Y000504D02*
X001374Y000504D01*
X001374Y001261D02*
X002150Y001261D01*
X002150Y001269D02*
X001374Y001269D01*
X001374Y001278D02*
X002150Y001278D01*
X002150Y001286D02*
X001374Y001286D01*
X001374Y001295D02*
X002150Y001295D01*
X002150Y001303D02*
X001374Y001303D01*
X001374Y001312D02*
X002150Y001312D01*
X002150Y001320D02*
X001374Y001320D01*
X001374Y001329D02*
X002150Y001329D01*
X002150Y001337D02*
X001374Y001337D01*
X001374Y001346D02*
X002150Y001346D01*
X002150Y001354D02*
X001374Y001354D01*
X001374Y001363D02*
X002150Y001363D01*
X002150Y001371D02*
X001374Y001371D01*
X001374Y001380D02*
X002150Y001380D01*
X002150Y001388D02*
X001374Y001388D01*
X001374Y001397D02*
X002150Y001397D01*
X002150Y001405D02*
X001374Y001405D01*
X001374Y001414D02*
X002150Y001414D01*
X002150Y001422D02*
X001374Y001422D01*
M02*
